<?xml version="1.0" encoding="UTF-8"?>
<svg xmlns="http://www.w3.org/2000/svg" xmlns:xlink="http://www.w3.org/1999/xlink" version="1.1" id="svg-482c" x="0px" y="0px" viewBox="0 0 512 512" style="enable-background:new 0 0 512 512;" xml:space="preserve" class="u-svg-content" fill="#fff">
  <g><g><path d="M305.965,284.907c-3.246-3.247-8.511-3.247-11.758,0c-15.335,15.335-40.288,15.335-55.624,0    c-3.247-3.247-8.512-3.247-11.758,0c-3.247,3.247-3.247,8.512,0,11.758c10.91,10.91,25.24,16.364,39.57,16.364    c14.33,0,28.661-5.454,39.57-16.364C309.212,293.418,309.212,288.153,305.965,284.907z"></path>
</g>
</g>
  <g><g><path d="M217.043,214.016c-4.592,0-8.315,3.723-8.315,8.315v13.299c0,4.592,3.723,8.315,8.315,8.315    c4.592,0,8.315-3.723,8.315-8.315V222.33C225.358,217.738,221.635,214.016,217.043,214.016z"></path>
</g>
</g>
  <g><g><path d="M315.748,214.016c-4.592,0-8.315,3.723-8.315,8.315v13.299c0,4.592,3.723,8.315,8.315,8.315    c4.592,0,8.315-3.723,8.315-8.315V222.33C324.062,217.738,320.341,214.016,315.748,214.016z"></path>
</g>
</g>
  <g><g><path d="M361.941,339.388c-3.926-2.382-9.04-1.132-11.422,2.793c-2.382,3.926-1.132,9.039,2.793,11.422    c16.037,9.736,25.611,26.723,25.611,45.441v96.327h-104.21v-90.237l36.21,25.724c1.429,1.016,3.115,1.537,4.816,1.537    c1.061,0,2.127-0.203,3.14-0.615c2.634-1.074,4.536-3.421,5.042-6.221l9.869-54.644c0.816-4.519-2.185-8.845-6.704-9.659    c-4.523-0.819-8.845,2.185-9.659,6.704l-7.543,41.761l-38.668-27.471c-2.883-2.049-6.748-2.049-9.632,0l-38.667,27.471    l-7.543-41.761c-0.816-4.519-5.142-7.521-9.659-6.704c-4.519,0.816-7.521,5.141-6.704,9.659l9.869,54.644    c0.505,2.8,2.408,5.147,5.042,6.221c2.634,1.073,5.635,0.726,7.955-0.921l36.208-25.724v90.237h-104.21v-96.327    c0-18.721,9.571-35.708,25.6-45.441c3.926-2.384,5.175-7.498,2.793-11.422c-2.382-3.926-7.496-5.176-11.422-2.793    c-21.039,12.773-33.6,35.074-33.6,59.656v104.642c0,4.592,3.723,8.315,8.315,8.315h241.678c4.592,0,8.315-3.723,8.315-8.315    V399.043C395.552,374.466,382.987,352.166,361.941,339.388z"></path>
</g>
</g>
  <g><g><path d="M279.145,215.093c-4.592,0-8.315,3.723-8.315,8.315v26.083c0,2.446-1.989,4.434-4.434,4.434    c-2.446,0-4.435-1.989-4.435-4.434v-26.083c0-4.592-3.723-8.315-8.315-8.315c-4.592,0-8.315,3.723-8.315,8.315v26.083    c0,11.615,9.45,21.064,21.064,21.064c11.615,0,21.064-9.449,21.064-21.064v-26.083    C287.459,218.816,283.736,215.093,279.145,215.093z"></path>
</g>
</g>
  <g><g><path d="M416.262,214.93c0-17.578-13.344-32.094-30.438-33.969l-0.667-6.911h6.851c2.492,0,4.852-1.117,6.432-3.045    c1.579-1.928,2.211-4.461,1.721-6.906l-6.674-33.258c-0.779-3.883-4.191-6.678-8.153-6.678h-1.722    c-1.439-20.56-8.196-40.252-19.774-57.39c-2.57-3.805-7.738-4.805-11.545-2.235c-3.805,2.571-4.806,7.739-2.235,11.545    c9.714,14.378,15.48,30.854,16.884,48.081h-69.509V36.457c10.561,3.397,20.433,8.509,29.448,15.273    c1.497,1.123,3.247,1.664,4.984,1.664c2.526,0,5.023-1.148,6.657-3.325c2.756-3.673,2.012-8.884-1.661-11.64    c-11.943-8.962-25.181-15.44-39.428-19.315V8.315c0-4.592-3.723-8.315-8.315-8.315h-45.453c-4.592,0-8.315,3.723-8.315,8.315    v10.83c-23.336,6.396-44.407,20.015-59.872,38.877c-15.39,18.771-24.55,41.993-26.274,66.141h-1.758    c-3.962,0-7.375,2.796-8.153,6.682l-6.663,33.258c-0.489,2.443,0.142,4.977,1.722,6.903c1.579,1.927,3.939,3.044,6.431,3.044    h6.852l-0.667,6.909c-17.096,1.867-30.444,16.386-30.444,33.97c0.001,15.384,10.093,28.414,24.148,32.693    c-0.42,9.605,0.645,19.162,3.205,28.478c5.531,20.081,17.859,37.884,34.713,50.126l45.509,33.07    c12.649,9.193,27.47,13.788,42.298,13.787c14.824-0.001,29.655-4.596,42.309-13.787l45.505-33.069    c16.924-12.289,29.274-30.186,34.777-50.396c2.513-9.238,3.555-18.708,3.134-28.214    C406.176,243.332,416.262,230.307,416.262,214.93z M142.206,230.292c-5.413-2.992-9.05-8.748-9.05-15.362    c0-7.791,5.107-14.404,12.146-16.689L142.206,230.292z M251.984,25.73c0.001-0.072,0.001-0.144,0-0.217v-8.883h28.824v107.533    h-28.824V25.73z M235.354,36.489v87.674h-69.492C169.234,83.75,196.947,48.925,235.354,36.489z M157.555,244.348l6.79-70.298    h9.301v66.954l-16.222,16.228C157.107,252.958,157.139,248.655,157.555,244.348z M344.441,312.773l-45.506,33.069    c-19.463,14.135-45.607,14.135-65.058,0.001l-45.51-33.071c-12.4-9.008-21.796-21.69-26.872-36.091l26.346-26.356    c1.559-1.559,2.435-3.673,2.435-5.878V174.05h21.939l5.29,21.398c0.918,3.712,4.248,6.319,8.072,6.319h81.637    c3.824,0,7.154-2.607,8.072-6.319l5.29-21.398h22.877v70.397c0,2.205,0.876,4.319,2.435,5.878l25.653,25.663    C366.521,290.69,357.034,303.629,344.441,312.773z M229.347,174.052h74.099l-2.74,11.086h-68.618L229.347,174.052z     M375.433,256.36l-15.351-15.357V174.05h8.369l6.791,70.304C375.633,248.365,375.683,252.374,375.433,256.36z M150.932,157.421    l3.331-16.629h224.26l3.337,16.629H150.932z M390.59,230.287l-3.095-32.04c7.036,2.288,12.139,8.898,12.139,16.684    C399.634,221.54,396.001,227.294,390.59,230.287z"></path>
</g>
</g>
  <g><g><path d="M354.534,446.771h-35.476c-4.592,0-8.315,3.723-8.315,8.315c0,4.592,3.723,8.315,8.315,8.315h35.476    c4.592,0,8.315-3.723,8.315-8.315C362.848,450.494,359.126,446.771,354.534,446.771z"></path>
</g>
</g>
  <g><g><path d="M213.74,446.771h-35.476c-4.592,0-8.315,3.723-8.315,8.315c0,4.592,3.723,8.315,8.315,8.315h35.476    c4.592,0,8.315-3.723,8.315-8.315C222.054,450.494,218.332,446.771,213.74,446.771z"></path>
</g>
</g>
  <g><g><path d="M503.241,297.011l-12.063-20.894c-2.297-3.978-7.382-5.34-11.358-3.043c-3.977,2.296-5.339,7.381-3.043,11.358    l12.063,20.894c3.952,6.847,3.953,15.022,0,21.869c-3.953,6.847-11.033,10.934-18.938,10.934h-11.848v-28.27    c0-4.592-3.723-8.315-8.315-8.315s-8.315,3.723-8.315,8.315v28.268h-11.849c-7.906,0-14.985-4.087-18.938-10.934    c-3.953-6.847-3.952-15.022,0-21.869l39.101-67.725l13.834,23.961c2.296,3.978,7.382,5.34,11.358,3.043    c3.977-2.296,5.339-7.381,3.043-11.358l-21.035-36.432c-1.486-2.572-4.229-4.157-7.2-4.157c-2.971,0-5.715,1.585-7.2,4.157    l-46.301,80.197c-6.959,12.053-6.959,26.445,0,38.498s19.423,19.249,33.34,19.249h11.849V387.5    c-7.567,3.239-12.885,10.757-12.885,19.496v59.594c0,11.689,9.51,21.2,21.2,21.2s21.2-9.51,21.2-21.2v-59.594    c0-8.739-5.317-16.257-12.885-19.496v-32.744h11.848c13.918,0,26.382-7.196,33.341-19.249    C510.201,323.455,510.201,309.063,503.241,297.011z M454.31,466.59c0,2.52-2.05,4.571-4.571,4.571    c-2.521,0-4.571-2.05-4.571-4.571v-59.594c0-2.52,2.05-4.57,4.571-4.57c2.521,0,4.571,2.05,4.571,4.57V466.59z"></path>
</g>
</g>
  <g><g><path d="M139.48,345.882l-10.347-73.764c-0.02-0.145-0.053-0.287-0.081-0.43c-0.728-13.78-10.833-25.188-24.602-27.427    l-0.523-0.085c-4.724-0.768-8.153-4.799-8.153-9.585v-65.303c0-13.358-10.867-24.224-24.224-24.224    c-13.358,0-24.224,10.867-24.224,24.224v65.303c0,4.786-3.429,8.817-8.154,9.585l-0.52,0.084    c-13.772,2.241-23.878,13.65-24.605,27.432c-0.028,0.142-0.06,0.282-0.08,0.426L3.62,345.881c-0.335,2.384,0.38,4.795,1.96,6.611    c1.579,1.816,3.868,2.859,6.275,2.859h29.071c4.592,0,8.315-3.723,8.315-8.315c0-4.592-3.723-8.315-8.315-8.315H21.414    l8.015-57.134h84.239l8.014,57.135H68.64c-4.592,0-8.315,3.723-8.315,8.315c0,4.592,3.723,8.315,8.315,8.315h62.607    c2.407,0,4.695-1.042,6.275-2.859S139.815,348.266,139.48,345.882z M33.663,264.959c1.901-2.218,4.57-3.783,7.658-4.285    l0.52-0.084c12.812-2.084,22.112-13.018,22.112-25.999v-65.303c0-4.188,3.407-7.595,7.595-7.595s7.595,3.407,7.595,7.595v65.303    c0,12.981,9.3,23.915,22.11,25.998l0.523,0.085c3.089,0.502,5.756,2.065,7.656,4.285H33.663z"></path>
</g>
</g>
  <g></g>
  <g></g>
  <g></g>
  <g></g>
  <g></g>
  <g></g>
  <g></g>
  <g></g>
  <g></g>
  <g></g>
  <g></g>
  <g></g>
  <g></g>
  <g></g>
  <g></g>
</svg>
