<?xml version="1.0" encoding="UTF-8"?>
<svg xmlns="http://www.w3.org/2000/svg" fill="none" height="463" viewBox="0 0 431 463" width="431">
  <g fill="#fff">
    <path d="m382.901 317.619c-.116-.028-.232-.055-.35-.078l-79.551-15.902v-37.662c15.015-11.921 24-30.15 24-49.72v-60.41c7.883-3.694 14.935-7.818 20.987-12.337 2.589-1.934 3.648-5.308 2.63-8.374s-3.886-5.136-7.117-5.136h-.728c-1.953-33.059-16.719-63.291-39.772-85.142v-3.358c0-4.143-3.357-7.5-7.5-7.5-1.476 0-2.849.433-4.009 1.169-13.18-9.836-28.37-17.214-44.954-21.362-1.663-6.767-7.765-11.807-15.037-11.807h-32c-7.272 0-13.373 5.04-15.037 11.807-16.584 4.149-31.774 11.526-44.954 21.362-1.16-.736-2.533-1.169-4.009-1.169-4.143 0-7.5 3.357-7.5 7.5v3.358c-23.053 21.851-37.819 52.083-39.772 85.142h-.728c-3.231 0-6.099 2.069-7.117 5.136s.041 6.44 2.63 8.374c6.052 4.519 13.105 8.643 20.987 12.337v60.41c0 19.57 8.985 37.799 24 49.72v37.662l-79.552 15.902c-.117.023-.233.05-.35.078-28.319 7.08-48.098 32.413-48.098 61.605v60.276c0 12.958 10.542 23.5 23.5 23.5h384c12.958 0 23.5-10.542 23.5-23.5v-60.276c0-29.192-19.779-54.525-48.099-61.605zm-38.901 130.381h-257v-40.5c0-9.098 7.402-16.5 16.5-16.5h224c9.098 0 16.5 7.402 16.5 16.5zm-162.132-153.574c10.283 5.609 21.911 8.574 33.632 8.574h.003.003c11.714 0 23.342-2.965 33.625-8.574l38.869-21.201v30.275c0 18.683-18.987 40.5-72.5 40.5s-72.5-21.817-72.5-40.5v-30.275zm-38.868 81.574v-38.879c14.931 13.844 40.242 21.879 72.5 21.879s57.569-8.035 72.5-21.879v38.879zm-15 0h-17v-55.667l17-3.398zm192 0h-17v-59.065l17 3.398zm-104.5-216c-36.231 0-70.59-5.917-96.5-16.088v-.912h193v.912c-25.91 10.171-60.269 16.088-96.5 16.088zm-72.5-110.44c11.773-9.977 25.654-17.613 41-22.081v100.521h-41zm104-22.081c15.346 4.468 29.227 12.104 41 22.081v78.44h-41zm80.722 100.521h-24.722v-63.078c14.208 17.632 23.143 39.522 24.722 63.078zm-128.222-113h32c.275 0 .5.225.5.5v2.417.005 110.078h-33v-112.5c0-.275.225-.5.5-.5zm-71.5 49.922v63.078h-24.722c1.579-23.556 10.514-45.446 24.722-63.078zm-9 149.335v-54.255c12.363 4.428 26.181 7.952 41 10.473v13.025c0 4.143 3.357 7.5 7.5 7.5s7.5-3.357 7.5-7.5v-10.859c12.981 1.548 26.566 2.359 40.5 2.359s27.519-.811 40.5-2.359v10.859c0 4.143 3.357 7.5 7.5 7.5s7.5-3.357 7.5-7.5v-13.025c14.819-2.521 28.637-6.044 41-10.473v54.255c0 17.759-9.686 34.074-25.276 42.578l-44.775 24.423c-8.087 4.411-17.23 6.742-26.449 6.742h-.003-.003c-9.212 0-18.355-2.331-26.441-6.742l-44.775-24.423c-15.592-8.504-25.278-24.819-25.278-42.578zm-104 225.243v-60.276c0-22.239 15.028-41.545 36.569-47.01l44.431-8.882v53.577c-13.759 3.374-24 15.806-24 30.591v40.5h-48.5c-4.687 0-8.5-3.813-8.5-8.5zm401 0c0 4.687-3.813 8.5-8.5 8.5h-48.5v-40.5c0-14.785-10.241-27.216-24-30.591v-53.577l44.431 8.882c21.541 5.465 36.569 24.771 36.569 47.01z"></path>
    <path d="m179.28 245.48c8.891 6.05 22.092 9.52 36.22 9.52 14.129 0 27.33-3.47 36.22-9.52 3.424-2.33 4.312-6.995 1.98-10.42-2.33-3.425-6.995-4.31-10.42-1.98-6.367 4.333-16.752 6.92-27.78 6.92-11.027 0-21.412-2.587-27.78-6.92-3.423-2.329-8.089-1.444-10.42 1.98s-1.444 8.09 1.98 10.42z"></path>
  </g>
</svg>