<?xml version="1.0" encoding="UTF-8"?>
<svg xmlns="http://www.w3.org/2000/svg" xmlns:xlink="http://www.w3.org/1999/xlink" version="1.1" id="svg-10b6" x="0px" y="0px" viewBox="0 0 512.012 512.012" style="enable-background:new 0 0 512.012 512.012;" xml:space="preserve" class="u-svg-content" fill="#fff">
  <g><g><path d="M52.004,423.996c-26.472,0-48,21.528-48,48c0,4.424,3.576,8,8,8s8-3.576,8-8c0-17.648,14.352-32,32-32    c4.424,0,8-3.576,8-8S56.428,423.996,52.004,423.996z"></path>
</g>
</g>
  <g><g><path d="M76.004,423.996h-24c-4.424,0-8,3.576-8,8s3.576,8,8,8h24c4.424,0,8-3.576,8-8S80.428,423.996,76.004,423.996z"></path>
</g>
</g>
  <g><g><path d="M12.004,463.996c-4.424,0-8,3.576-8,8v24c0,4.424,3.576,8,8,8s8-3.576,8-8v-24    C20.004,467.572,16.428,463.996,12.004,463.996z"></path>
</g>
</g>
  <g><g><path d="M20.004,495.988c-0.48-4.208-3.888-7.744-8.416-7.536c-4.24,0.232-7.584,3.296-7.584,7.544c0,8.824,7.176,16,16,16    c4.424,0,8-3.584,8-8.008C28.004,499.572,24.42,495.988,20.004,495.988z"></path>
</g>
</g>
  <g><g><path d="M164.004,423.996c-4.424,0-8,3.576-8,8s3.576,8,8,8c17.648,0,32,14.352,32,32c0,4.424,3.576,8,8,8s8-3.576,8-8    C212.004,445.524,190.476,423.996,164.004,423.996z"></path>
</g>
</g>
  <g><g><path d="M164.004,423.996h-24c-4.424,0-8,3.576-8,8s3.576,8,8,8h24c4.424,0,8-3.576,8-8S168.428,423.996,164.004,423.996z"></path>
</g>
</g>
  <g><g><path d="M204.004,463.996c-4.424,0-8,3.576-8,8v24c0,4.424,3.576,8,8,8s8-3.576,8-8v-24    C212.004,467.572,208.428,463.996,204.004,463.996z"></path>
</g>
</g>
  <g><g><path d="M204.004,487.996c-4.424,0-8,3.576-8,8c-4.424,0-8,3.576-8,8s3.576,8,8,8c8.824,0,16-7.176,16-16    C212.004,491.572,208.428,487.996,204.004,487.996z"></path>
</g>
</g>
  <g><g><path d="M196.004,495.996h-176c-4.424,0-8,3.576-8,8s3.576,8,8,8h176c4.424,0,8-3.576,8-8S200.428,495.996,196.004,495.996z"></path>
</g>
</g>
  <g><g><path d="M76.004,392.508c-4.424,0-8,3.576-8,8v31.488c0,4.424,3.576,8,8,8s8-3.576,8-8v-31.488    C84.004,396.084,80.428,392.508,76.004,392.508z"></path>
</g>
</g>
  <g><g><path d="M140.004,392.508c-4.424,0-8,3.576-8,8v31.488c0,4.424,3.576,8,8,8s8-3.576,8-8v-31.488    C148.004,396.084,144.428,392.508,140.004,392.508z"></path>
</g>
</g>
  <g><g><path d="M180.004,328.012c-4.424,0-8,3.576-8,8c0,35.28-28.712,63.984-64.008,63.984c-35.288,0-63.992-28.704-63.992-63.984    c0-4.424-3.576-8-8-8s-8,3.576-8,8c0,44.104,35.88,79.984,79.992,79.984c44.12,0,80.008-35.88,80.008-79.984    C188.004,331.588,184.428,328.012,180.004,328.012z"></path>
</g>
</g>
  <g><g><path d="M36.004,295.996c-4.424,0-8,3.576-8,8v32.408c0,4.424,3.576,8,8,8s8-3.576,8-8v-32.408    C44.004,299.572,40.428,295.996,36.004,295.996z"></path>
</g>
</g>
  <g><g><path d="M180.004,295.996c-4.424,0-8,3.576-8,8v32.016c0,4.424,3.576,8,8,8s8-3.576,8-8v-32.016    C188.004,299.572,184.428,295.996,180.004,295.996z"></path>
</g>
</g>
  <g><g><path d="M95.588,432.844l-16-8c-3.952-1.96-8.752-0.376-10.736,3.576c-1.976,3.952-0.376,8.76,3.576,10.736l16,8    c1.144,0.568,2.368,0.84,3.568,0.84c2.936,0,5.76-1.616,7.168-4.416C101.14,439.628,99.54,434.82,95.588,432.844z"></path>
</g>
</g>
  <g><g><path d="M115.156,428.412c-1.984-3.952-6.784-5.536-10.736-3.576l-16,8c-3.952,1.976-5.552,6.784-3.576,10.736    c1.408,2.808,4.232,4.424,7.168,4.424c1.2,0,2.424-0.272,3.568-0.848l16-8C115.532,437.172,117.132,432.364,115.156,428.412z"></path>
</g>
</g>
  <g><g><path d="M147.157,428.412c-1.984-3.952-6.792-5.536-10.736-3.576l-16,8c-3.952,1.976-5.552,6.784-3.576,10.736    c1.408,2.808,4.232,4.424,7.168,4.424c1.2,0,2.424-0.272,3.568-0.848l16-8C147.532,437.172,149.132,432.364,147.157,428.412z"></path>
</g>
</g>
  <g><g><path d="M127.588,432.844l-16-8c-3.96-1.96-8.752-0.376-10.736,3.576c-1.976,3.952-0.376,8.76,3.576,10.736l16,8    c1.144,0.568,2.368,0.84,3.568,0.84c2.936,0,5.76-1.616,7.168-4.416C133.14,439.628,131.54,434.82,127.588,432.844z"></path>
</g>
</g>
  <g><g><path d="M155.996,343.996c-4.424,0-8,3.576-8,8c0,8.824-7.168,16-15.992,16c-4.424,0-8,3.576-8,8s3.576,8,8,8    c17.64,0,31.992-14.352,31.992-32C163.996,347.572,160.42,343.996,155.996,343.996z"></path>
</g>
</g>
  <g><g><path d="M155.996,328.012c-4.424,0-8,3.576-8,8c0,4.408-3.584,7.984-8,7.984c-4.424,0-8,3.576-8,8s3.576,8,8,8    c13.232,0,24-10.76,24-23.984C163.996,331.588,160.42,328.012,155.996,328.012z"></path>
</g>
</g>
  <g><g><path d="M139.996,343.996h-19.992c-4.424,0-8,3.576-8,8s3.576,8,8,8h19.992c4.424,0,8-3.576,8-8S144.42,343.996,139.996,343.996z"></path>
</g>
</g>
  <g><g><path d="M131.748,367.996h-11.744c-4.424,0-8,3.576-8,8s3.576,8,8,8h11.744c4.424,0,8-3.576,8-8S136.173,367.996,131.748,367.996z    "></path>
</g>
</g>
  <g><g><path d="M120.004,367.996c-2.2,0-4-1.8-4-4s1.8-4,4-4c4.424,0,8-3.576,8-8s-3.576-8-8-8c-11.032,0-20,8.968-20,20    c0,11.032,8.968,20,20,20c4.424,0,8-3.576,8-8S124.428,367.996,120.004,367.996z"></path>
</g>
</g>
  <g><g><path d="M156.004,327.996c-4.424,0-8,3.576-8,8v16c0,4.424,3.576,8,8,8s8-3.576,8-8v-16    C164.004,331.572,160.428,327.996,156.004,327.996z"></path>
</g>
</g>
  <g><g><path d="M84.004,367.996c-8.824,0-15.992-7.176-15.992-16c0-4.424-3.576-8-8-8s-8,3.576-8,8c0,17.648,14.352,32,31.992,32    c4.424,0,8-3.576,8-8S88.428,367.996,84.004,367.996z"></path>
</g>
</g>
  <g><g><path d="M76.012,343.996c-4.416,0-8-3.576-8-7.984c0-4.424-3.576-8-8-8s-8,3.576-8,8c0,13.224,10.768,23.984,24,23.984    c4.424,0,8-3.576,8-8S80.436,343.996,76.012,343.996z"></path>
</g>
</g>
  <g><g><path d="M96.004,343.996H76.012c-4.424,0-8,3.576-8,8s3.576,8,8,8h19.992c4.424,0,8-3.576,8-8S100.428,343.996,96.004,343.996z"></path>
</g>
</g>
  <g><g><path d="M96.004,367.996H84.26c-4.424,0-8,3.576-8,8s3.576,8,8,8h11.744c4.424,0,8-3.576,8-8S100.428,367.996,96.004,367.996z"></path>
</g>
</g>
  <g><g><path d="M96.004,343.996c-4.424,0-8,3.576-8,8s3.576,8,8,8c2.2,0,4,1.8,4,4s-1.8,4-4,4c-4.424,0-8,3.576-8,8s3.576,8,8,8    c11.032,0,20-8.968,20-20C116.004,352.964,107.036,343.996,96.004,343.996z"></path>
</g>
</g>
  <g><g><path d="M60.004,327.996c-4.424,0-8,3.576-8,8v16c0,4.424,3.576,8,8,8s8-3.576,8-8v-16    C68.004,331.572,64.428,327.996,60.004,327.996z"></path>
</g>
</g>
  <g><g><path d="M188.004,271.996h-160c-4.424,0-8,3.576-8,8v24c0,4.424,3.576,8,8,8h160c4.424,0,8-3.576,8-8v-24    C196.004,275.572,192.428,271.996,188.004,271.996z M180.004,295.996h-144v-8h144V295.996z"></path>
</g>
</g>
  <g><g><path d="M125.748,201.972c-4.312-0.952-8.592,1.728-9.568,6.04c-0.976,4.304,1.728,8.592,6.04,9.568    c28.848,6.536,49.784,32.784,49.784,62.416c0,4.424,3.576,8,8,8s8-3.576,7.992-8C187.996,242.364,162.404,210.276,125.748,201.972    z"></path>
</g>
</g>
  <g><g><path d="M99.804,208.028c-0.976-4.312-5.28-7-9.568-6.04c-36.64,8.304-62.232,40.384-62.232,78.008c0,4.424,3.576,8,8,8    s8-3.576,7.992-8c0-30.104,20.472-55.768,49.768-62.4C98.076,216.62,100.78,212.332,99.804,208.028z"></path>
</g>
</g>
  <g><g><path d="M92.004,193.62c-4.424,0-8,3.576-8,8v38.376c0,4.424,3.576,8,8,8s8-3.576,8-8V201.62    C100.004,197.196,96.428,193.62,92.004,193.62z"></path>
</g>
</g>
  <g><g><path d="M125.588,193.74c-11.496-2.336-23.696-2.336-35.32,0.04c-4.328,0.888-7.112,5.104-6.232,9.44    c0.776,3.792,4.104,6.4,7.832,6.4c0.536,0,1.072-0.056,1.6-0.168c9.504-1.936,19.528-1.928,28.944-0.024    c4.328,0.904,8.552-1.928,9.432-6.256S129.916,194.62,125.588,193.74z"></path>
</g>
</g>
  <g><g><path d="M95.988,433.508c-3.128-3.128-8.184-3.128-11.312,0L19.844,498.34c-3.128,3.128-3.128,8.184,0,11.312    c1.56,1.56,3.608,2.344,5.656,2.344c2.04,0,4.088-0.784,5.656-2.344l64.832-64.832C99.116,441.692,99.116,436.636,95.988,433.508z    "></path>
</g>
</g>
  <g><g><path d="M188.804,431.196c-3.128-3.128-8.184-3.128-11.312,0l-67.144,67.144c-3.128,3.128-3.128,8.184,0,11.312    c1.56,1.56,3.608,2.344,5.656,2.344s4.096-0.784,5.656-2.344l67.144-67.144C191.933,439.38,191.932,434.324,188.804,431.196z"></path>
</g>
</g>
  <g><g><path d="M196.149,498.324l-64.816-64.816c-3.128-3.128-8.184-3.128-11.312,0c-3.128,3.128-3.128,8.184,0,11.312l64.816,64.816    c1.56,1.56,3.608,2.344,5.656,2.344c2.04,0,4.088-0.784,5.656-2.344C199.277,506.508,199.277,501.452,196.149,498.324z"></path>
</g>
</g>
  <g><g><path d="M105.676,498.356l-67.152-67.144c-3.128-3.128-8.184-3.128-11.312,0c-3.128,3.128-3.128,8.184,0,11.312l67.152,67.144    c1.56,1.56,3.608,2.344,5.656,2.344c2.048,0,4.096-0.784,5.656-2.344C108.804,506.54,108.804,501.484,105.676,498.356z"></path>
</g>
</g>
  <g><g><path d="M124.012,193.588c-4.424,0-8,3.576-8,8v38.408c0,4.424,3.576,8,8,8s8-3.576,8-8v-38.408    C132.012,197.164,128.436,193.588,124.012,193.588z"></path>
</g>
</g>
  <g><g><path d="M298.812,3.812c-2.312-3.768-7.232-4.944-11.008-2.616l-208,128c-3.76,2.312-4.928,7.24-2.616,11.008    c1.512,2.456,4.136,3.808,6.824,3.808c1.432,0,2.872-0.384,4.184-1.192l208-128C299.957,12.508,301.124,7.58,298.812,3.812z"></path>
</g>
</g>
  <g><g><path d="M504.204,129.204l-208-128c-3.784-2.328-8.696-1.152-11.008,2.616s-1.144,8.696,2.616,11.008l208,128    c1.312,0.8,2.752,1.184,4.184,1.184c2.688,0,5.312-1.352,6.824-3.8C509.133,136.444,507.965,131.516,504.204,129.204z"></path>
</g>
</g>
  <g><g><path d="M298.812,35.812c-2.312-3.76-7.232-4.944-11.008-2.616l-208,128c-3.76,2.312-4.928,7.24-2.616,11.008    c1.512,2.456,4.136,3.808,6.824,3.808c1.432,0,2.872-0.384,4.184-1.192l208-128C299.957,44.508,301.124,39.58,298.812,35.812z"></path>
</g>
</g>
  <g><g><path d="M504.204,161.204l-208-128c-3.784-2.328-8.696-1.144-11.008,2.616c-2.312,3.768-1.144,8.696,2.616,11.008l208,128    c1.312,0.8,2.752,1.184,4.184,1.184c2.688,0,5.312-1.352,6.824-3.8C509.133,168.444,507.965,163.516,504.204,161.204z"></path>
</g>
</g>
  <g><g><path d="M84.004,128.012c-4.424,0-8,3.576-8,8v32c0,4.424,3.576,8,8,8s8-3.576,8-8v-32    C92.004,131.588,88.428,128.012,84.004,128.012z"></path>
</g>
</g>
  <g><g><path d="M500.004,128.012c-4.424,0-8,3.576-8,8v32c0,4.424,3.576,8,8,8s8-3.576,8-8v-32    C508.004,131.588,504.428,128.012,500.004,128.012z"></path>
</g>
</g>
  <g><g><path d="M108.004,145.244c-4.424,0-8,3.576-8,8v46.752c0,4.424,3.576,8,8,8s8-3.576,8-8v-46.752    C116.004,148.82,112.428,145.244,108.004,145.244z"></path>
</g>
</g>
  <g><g><path d="M476.004,145.244c-4.424,0-8,3.576-8,8v230.768c0,4.424,3.576,8,8,8s8-3.576,8-8V153.244    C484.004,148.82,480.428,145.244,476.004,145.244z"></path>
</g>
</g>
  <g><g><path d="M476.004,376.012H161.652c-4.424,0-8,3.576-8,8s3.576,8,8,8h314.352c4.424,0,8-3.576,8-8S480.428,376.012,476.004,376.012    z"></path>
</g>
</g>
  <g><g><path d="M324.004,256.012h-64c-4.424,0-8,3.576-8,8v120c0,4.424,3.576,8,8,8h64c4.424,0,8-3.576,8-8v-120    C332.004,259.588,328.428,256.012,324.004,256.012z M316.004,376.012h-48v-104h48V376.012z"></path>
</g>
</g>
  <g><g><path d="M444.004,216.012h-88c-4.424,0-8,3.576-8,8v80c0,4.424,3.576,8,8,8h88c4.424,0,8-3.576,8-8v-80    C452.004,219.588,448.428,216.012,444.004,216.012z M436.004,296.012h-72v-64h72V296.012z"></path>
</g>
</g>
  <g><g><path d="M228.004,216.012h-74.76c-4.424,0-8,3.576-8,8s3.576,8,8,8h66.76v64h-32c-4.424,0-8,3.576-8,8s3.576,8,8,8h40    c4.424,0,8-3.576,8-8v-80C236.004,219.588,232.428,216.012,228.004,216.012z"></path>
</g>
</g>
  <g><g><path d="M292.004,104.012c-22.056,0-40,17.944-40,40c0,22.056,17.944,40,40,40c22.056,0,40-17.944,40-40    C332.004,121.956,314.061,104.012,292.004,104.012z M292.004,168.012c-13.232,0-24-10.768-24-24s10.768-24,24-24s24,10.768,24,24    S305.236,168.012,292.004,168.012z"></path>
</g>
</g>
  <g><g><path d="M292.004,104.012c-4.424,0-8,3.576-8,8v64c0,4.424,3.576,8,8,8s8-3.576,8-8v-64    C300.004,107.588,296.428,104.012,292.004,104.012z"></path>
</g>
</g>
  <g><g><path d="M324.004,136.012h-64c-4.424,0-8,3.576-8,8s3.576,8,8,8h64c4.424,0,8-3.576,8-8S328.428,136.012,324.004,136.012z"></path>
</g>
</g>
  <g></g>
  <g></g>
  <g></g>
  <g></g>
  <g></g>
  <g></g>
  <g></g>
  <g></g>
  <g></g>
  <g></g>
  <g></g>
  <g></g>
  <g></g>
  <g></g>
  <g></g>
</svg>